<?xml version="1.0" encoding="utf-8"?>
<!-- Generator: Adobe Illustrator 16.0.0, SVG Export Plug-In . SVG Version: 6.00 Build 0)  -->
<!DOCTYPE svg PUBLIC "-//W3C//DTD SVG 1.1//EN" "http://www.w3.org/Graphics/SVG/1.1/DTD/svg11.dtd">
<svg version="1.1" id="Layer_1" xmlns="http://www.w3.org/2000/svg" xmlns:xlink="http://www.w3.org/1999/xlink" x="0px" y="0px"
	 width="95.244px" height="64.063px" viewBox="0 0 95.244 64.063" enable-background="new 0 0 95.244 64.063" xml:space="preserve">
<g>
	<path fill="#F48789" d="M95.111,58.953c0,1.396-1.133,2.528-2.527,2.528H20.877c-1.395,0-2.527-1.132-2.527-2.528V38.998
		c0-1.396,1.133-2.528,2.527-2.528h71.707c1.395,0,2.527,1.132,2.527,2.528V58.953z"/>
	<path fill="#DF1E26" d="M94.734,58.065c0,1.396-1.131,2.527-2.525,2.527H20.877c-1.395,0-2.527-1.131-2.527-2.527V39.944
		c0-1.396,1.133-2.528,2.527-2.528h71.332c1.395,0,2.525,1.133,2.525,2.528V58.065z"/>
	<path fill="#C72127" d="M42.4,37.417H20.877c-1.395,0-2.527,1.131-2.527,2.527v18.121c0,1.396,1.133,2.527,2.527,2.527h3.918
		C30.844,51.925,38.188,42.635,42.4,37.417"/>
	<path fill="#E1AF41" d="M1.367,40.557c0,0-0.873,11.853-0.75,18.405c0,0,4.873,4.108,11.707,4.9c0,0,3.219,0.422,4.852-0.396
		c0,0,1.338,1.412,7.875-15.079l0.67-3.567L1.367,40.557z"/>
	<path fill="#EAD2A0" d="M2.539,40.149c0,0-1.494,11.637-1.369,18.191c0,0,4.209,4.172,11.043,4.965c0,0,3.219,0.42,4.854-0.398
		c0,0,1.957-0.021,7.379-15.472l1.275-2.613L2.539,40.149z"/>
	<path fill="#E2C172" d="M5.012,40.149c0,0-2.592,11.936-2.469,18.489c0,0,3.09,3.482,9.924,4.273c0,0,3.225,0.405,4.859-0.412
		c0,0,2.086-0.642,7.283-15.659l0.67-3.566L5.012,40.149z"/>
	<path fill="#DCA228" d="M1.125,30.196c0,0-0.98,6.918-0.844,9.988c0,0,3.551,5.108,14.617,6.965
		c11.068,1.858,11.564,0.793,11.564,0.793s0.354-0.198,0.613-0.799c0,0,3.279-6.691,3.215-8.921L1.125,30.196z"/>
	<path fill="#EDDBAC" d="M1.59,30.416c0,0-0.939,6.672-0.803,9.74c0,0,3.127,4.437,14.162,6.486
		c8.803,1.634,10.436,0.742,10.436,0.742s0.742-0.038,1.264-1.114c0,0,3.184-6.015,3.119-8.245L1.59,30.416z"/>
	<path fill="#EECE7D" d="M2.523,29.984c0,0-0.719,7.082-0.582,10.15c0,0,1.873,3.479,12.855,5.794
		c7.652,1.615,10.178,1.106,10.178,1.106s0.943-0.155,1.338-0.977c0,0,3.184-6.016,3.119-8.246L2.523,29.984z"/>
	<path fill="#15254D" d="M31.734,33.666c0,0,1.84,1.128,0.484,4.211c0,0-0.725,1.448-2.543,1.893c0,0-1.543,2.339-4.105,2.339
		c0,0-1.635,0-2.34-1.43c0,0-1.002,0.781-2.859,0.631c0,0-2.061-0.129-2.58-2.005c0,0-0.428,1.282-2.453,1.282
		c-2.023,0-3.137-0.743-3.639-2.583c0,0-1.021,0.855-2.787,0.855c-1.764,0-3.1-0.855-3.973-3.473c0,0-2.211,0.167-3.232-1.059
		c-1.02-1.227-0.5-2.488-0.5-2.488S0,30.763,0,28.832c0-1.931,1.969-2.823,2.414-2.933c0.445-0.112,0.947,0,0.947,0
		s0.383-1.988,3.008-3.313c0,0-0.953-4.556,1.844-6.537c2.799-1.981,4.754-1.51,7.256-1.51c0,0-0.854-0.769-0.854-2.365
		c0-1.598,2.766-3.064,2.822-3.102c0.057-0.037,3.918-2.395,9.006-3.343c0,0-0.502,0.948-0.613,1.394
		c-0.109,0.446-0.146,1.932,0.428,2.302c0.576,0.372,2.73,1.728,2.6,4.104c-0.129,2.377-1.635,2.823-1.635,2.823
		s2.359,1.132,2.359,3.882c0,2.75-2.117,4.196-3.51,4.475C26.072,24.709,32.424,28.944,31.734,33.666"/>
	<path fill="#62A6DB" d="M25.992,6.177c0,0-1.055,1.694-0.229,3.252c0,0,0.5,0.729,1.602,1.73c1.104,1.003,1.215,3.293,0.348,4.284
		c0,0-0.396,0.731-2.391,0.668c0,0,2.105,0.347,3.021,2.167c0.916,1.82,0.396,3.64-0.371,4.68c0,0-0.396,0.731-1.076,1.065
		c0,0-2.6,0.142-3.605-0.255c0,0,7.219,2.854,7.553,9.355c0,0-1.707-0.559-3.193,1.262c0,0,3.307-1.671,4.383,0.631
		s-0.891,4.42-2.488,4.271c0,0-1.523,2.415-3.75,2.415c0,0-1.072,0.186-2.504-1.374c0,0-0.914,0.668-2.176,0.668
		c-1.264,0-2.564-0.742-3.27-1.967c0,0-1.338,1.075-2.822,0.853c-1.486-0.223-2.377-0.853-3.307-2.599c0,0-1.373,1.335-3.342,1.001
		c-1.969-0.334-2.898-2.711-3.379-3.564c0,0-1.152,0.185-2.082-0.558c-0.928-0.743-1.447-1.299-1.447-2.525
		c0,0-1.412-1.562-0.596-3.678c0.818-2.116,2.787-1.82,3.418-0.929l0.482,0.559c0,0-0.186-0.893-1.15-1.672
		c0,0,1.596-2.637,3.416-3.045c0,0,1.078-0.409,2.229,0.296c0,0-0.52-0.929-2.525-0.929c0,0-0.854-3.837,2.713-6.115
		c0,0,1.436-1.139,3.813-1.238c2.377-0.099,6.783,0.545,6.783,0.545s-1.449-1.222-4.371-1.468c0,0-1.506-1.65,0.803-3.831
		C18.723,8.012,23.023,6.034,25.992,6.177"/>
	<path fill="#4471B8" d="M25.16,6.974c0,0-1.17,2.066,1.154,4.392c0,0,0.867,0.846,0.867,2.183s-2.314,2.426-2.314,2.426
		s3.154,2.18,3.154,4.31c0,2.127-1.039,3.218-5.545,3.218c0,0,7.049,3.895,7.791,9.541c0,0-1.65-0.083-2.492,1.254
		c0,0,2.129-0.792,2.92-0.446c0,0,0.447,0.15,0.744,0.693c0.297,0.545,0.742,3.269-2.674,3.813c0,0-2.131,3.714-5.943,0.992
		c0,0-2.773,1.634-5.348-1.189c0,0-4.012,2.032-5.695-1.683c0,0-4.854,2.526-6.24-2.376c0,0-3.564,0.165-3.615-3.905
		c0,0-0.049-2.731,3.021-2.632c0,0,0.494-4.786,7.131-3.903c0,0-3.02-1.396-2.129-4.961c0.891-3.566,4.754-2.922,4.754-2.922
		l7.082,0.495c0,0-0.744-2.723-3.617-2.674c0,0-1.979-3.119,3.963-6.24c0,0,0.793-0.374,3.219-0.385"/>
	<path fill="#E43839" d="M21.299,2.605c-0.572,0.312-1.422,0.83-1.604,1.247l0.412-1.357l-0.023,0c-2.586,0-4.541,2.079-4.541,4.667
		c0,1.613,0.832,3.071,2.076,3.914c0.768-0.794,2.656-2.108,6.762-1.758c0.336-0.646,0.529-1.377,0.529-2.156
		C24.91,4.943,23.367,3.09,21.299,2.605"/>
	<path fill="#8B181B" d="M17.623,11.231l-0.104-0.07c-1.33-0.901-2.125-2.397-2.125-4c0-2.665,1.945-4.791,4.609-4.791l0.178,0.009
		l0.014,0.192l-0.014,0.458c0.273-0.212,0.559-0.341,1.012-0.59l0.049-0.027l0.057,0.013c2.193,0.515,3.76,2.482,3.76,4.735
		c0,0.781-0.184,1.529-0.547,2.225l-0.045,0.088l-0.098-0.008c-0.459-0.039-0.906-0.058-1.334-0.058
		c-3.172,0-4.699,1.088-5.326,1.736L17.623,11.231z M20.029,2.633c-2.422,0.113-4.336,2.101-4.336,4.527
		c0,1.465,1.113,2.696,2.301,3.547c0.711-0.688,1.576-1.486,4.717-1.486c0.404,0,0.826,0.018,1.258,0.052
		c0.311-0.627,0.793-1.414,0.793-2.113c0-2.095-1.414-3.896-3.441-4.398c-0.318,0.127-0.766,0.334-1.088,0.624l-0.617,0.612
		L20.029,2.633z"/>
	<path fill="#C72127" d="M21.299,2.605c-0.572,0.312-1.422,0.83-1.604,1.247l0.365-1.198l-0.031-0.022
		c-1.414,0.066-2.346,0.635-3.158,1.478c-0.488,1.331-0.912,3.504,1.781,6.029c1.092-0.604,2.93-1.061,5.729-0.822
		c0.336-0.646,0.529-1.377,0.529-2.156C24.91,4.943,23.367,3.09,21.299,2.605"/>
	<path fill="#3C1F0E" d="M18.979,3.948c0,0-0.584-4.086-4.684-3.945v1.119C14.295,1.122,17.49,1.034,18.979,3.948"/>
	<path fill="#15254D" d="M17.207,11.646c0,0,2.725-2.758,8.131-2.091C25.338,9.555,19.551,8.096,17.207,11.646"/>
	<path fill="#9B1C20" d="M34.531,47.393c-0.41,0.532-0.824,1.074-1.242,1.62c0.148,0.161,0.295,0.318,0.441,0.478
		c0.209,0.23,0.414,0.459,0.617,0.689c-0.012,0.204-0.098,0.386-0.252,0.547c-0.156,0.163-0.334,0.244-0.539,0.244h-1.754
		c-0.5,0.664-1.004,1.334-1.506,2.009h3.26c0.582,0,1.1-0.158,1.553-0.478c0.453-0.316,0.787-0.732,1.006-1.247
		c0.08-0.176,0.141-0.359,0.182-0.548s0.061-0.385,0.061-0.588v-0.093v-0.09c-0.027-0.189-0.07-0.373-0.131-0.548
		c-0.063-0.175-0.16-0.331-0.295-0.467c-0.434-0.474-0.869-0.95-1.309-1.431C34.592,47.458,34.563,47.425,34.531,47.393
		 M39.359,41.217c-0.691,0.871-1.418,1.792-2.172,2.755c-0.234,0.321-0.467,0.644-0.697,0.973c-0.305,0.434-0.613,0.866-0.924,1.3
		l1.643,1.156c0.313-0.433,0.621-0.863,0.924-1.288c0.305-0.428,0.611-0.856,0.924-1.289c0.176-0.257,0.338-0.548,0.486-0.874
		c0.148-0.324,0.25-0.655,0.305-0.994c0-0.054,0.004-0.115,0.012-0.184c0.006-0.067,0.01-0.128,0.01-0.18
		c0-0.189-0.021-0.377-0.061-0.559c-0.043-0.183-0.117-0.356-0.225-0.519C39.516,41.404,39.439,41.306,39.359,41.217"/>
	<path fill="#8A1C1F" d="M31.805,50.972h-0.896H28.26l-0.648,2.009h2.686C30.799,52.306,31.303,51.635,31.805,50.972 M37.84,40.644
		h-0.133h-0.133c-0.297,0.025-0.594,0.077-0.893,0.151c-0.297,0.073-0.566,0.16-0.811,0.254c-0.244,0.093-0.494,0.195-0.752,0.304
		c-0.256,0.107-0.521,0.231-0.791,0.366c-0.799,0.392-1.533,0.902-2.201,1.531c-0.67,0.629-1.018,1.384-1.045,2.263
		c0,0.337,0.057,0.672,0.172,1.004c0.115,0.331,0.301,0.633,0.559,0.903c0.217,0.23,0.428,0.459,0.639,0.69
		c0.209,0.23,0.422,0.459,0.639,0.69c0.066,0.071,0.133,0.142,0.199,0.212c0.418-0.546,0.832-1.088,1.242-1.62
		c-0.408-0.447-0.814-0.892-1.217-1.331c-0.068-0.083-0.119-0.164-0.152-0.246c-0.035-0.081-0.051-0.162-0.051-0.243v-0.081
		c0-0.027,0.006-0.061,0.02-0.102c0.041-0.189,0.139-0.378,0.295-0.568c0.154-0.189,0.328-0.358,0.516-0.508
		c0.109-0.093,0.219-0.179,0.326-0.253c0.107-0.075,0.203-0.139,0.283-0.193c0.135-0.083,0.275-0.16,0.416-0.234
		c0.143-0.074,0.287-0.145,0.436-0.212c0.205-0.096,0.404-0.18,0.6-0.254c0.197-0.073,0.383-0.145,0.559-0.212
		c0.311-0.124,0.572-0.207,0.781-0.255c0.164-0.036,0.305-0.054,0.422-0.054c0.035,0,0.066,0.002,0.096,0.005
		c-0.014,0.081-0.037,0.171-0.07,0.274c-0.035,0.1-0.072,0.199-0.113,0.294c-0.041,0.081-0.08,0.158-0.121,0.232
		s-0.088,0.147-0.143,0.215c-0.074,0.1-0.15,0.202-0.225,0.304c0.754-0.963,1.48-1.884,2.172-2.755
		c-0.158-0.167-0.336-0.296-0.537-0.38C38.518,40.708,38.191,40.644,37.84,40.644"/>
	<path fill="#9B1C20" d="M39.93,50.931c-0.285,0-0.498-0.094-0.639-0.284c-0.145-0.189-0.221-0.405-0.234-0.649v-0.051
		c0-0.019,0.006-0.038,0.02-0.05v-0.052v-0.049c0.041-0.244,0.137-0.478,0.285-0.7c0.148-0.224,0.33-0.404,0.547-0.539
		c0.041,0.379,0.188,0.704,0.438,0.973c0.25,0.272,0.551,0.44,0.902,0.509c-0.135,0.242-0.322,0.453-0.559,0.627
		C40.453,50.843,40.199,50.931,39.93,50.931 M40.6,46.304c-0.99,0-1.834,0.375-2.537,1.127c-0.703,0.75-1.055,1.607-1.055,2.567
		c0,0.745,0.225,1.397,0.68,1.958c0.453,0.562,1.051,0.896,1.795,1.005c0.041,0,0.078,0.002,0.111,0.009
		c0.033,0.008,0.072,0.011,0.111,0.011c0.041,0.013,0.078,0.02,0.111,0.02h0.113c0.838,0,1.586-0.29,2.242-0.871
		s1.072-1.265,1.246-2.05h0.975l0.525-1.622h-0.727l0.178-0.448h-1.133c-0.23-0.514-0.578-0.926-1.045-1.237
		C41.725,46.46,41.193,46.304,40.6,46.304"/>
	<path fill="#9B1C20" d="M45.916,57.08c-0.137,0-0.23-0.041-0.285-0.122c-0.053-0.081-0.08-0.189-0.08-0.325
		c0-0.108,0.01-0.224,0.029-0.345c0.021-0.121,0.051-0.244,0.092-0.365c0.014-0.054,0.027-0.112,0.041-0.172
		c0.012-0.061,0.033-0.119,0.061-0.173c0-0.026,0.002-0.05,0.01-0.071c0.006-0.02,0.018-0.045,0.031-0.071
		c0.338-1.056,0.68-2.108,1.025-3.156c0.344-1.047,0.686-2.1,1.023-3.155c0.068,0.055,0.133,0.118,0.191,0.193
		c0.063,0.074,0.121,0.151,0.174,0.233c0.256,0.351,0.443,0.748,0.559,1.186c0.115,0.439,0.172,0.897,0.172,1.37v0.234
		c0,0.074-0.006,0.145-0.02,0.212c-0.068,0.879-0.314,1.726-0.742,2.538c-0.424,0.811-0.982,1.407-1.674,1.785
		c-0.135,0.068-0.252,0.12-0.354,0.153C46.068,57.062,45.982,57.08,45.916,57.08 M50.643,40.521h-2.129l-1.908,5.905h-1.604
		l-0.633,1.584l-0.178,0.447h0.727h1.039l-2.07,6.37c-0.094,0.339-0.17,0.657-0.225,0.954c-0.053,0.298-0.08,0.577-0.08,0.833
		c0,0.351,0.043,0.665,0.131,0.943c0.09,0.277,0.201,0.53,0.336,0.759v-0.039c0.23,0.298,0.49,0.51,0.781,0.639
		s0.598,0.192,0.924,0.192h0.152c0.047,0,0.098-0.006,0.15-0.02c0.244-0.028,0.484-0.079,0.721-0.153s0.465-0.171,0.68-0.293
		c1.041-0.556,1.867-1.39,2.477-2.507c0.609-1.116,0.947-2.283,1.014-3.5c0.014-0.082,0.021-0.163,0.021-0.244v-0.243
		c0.014-0.677-0.068-1.329-0.244-1.958c-0.176-0.629-0.439-1.207-0.791-1.734h1.176l0.65-2.031h-3.023L50.643,40.521z"/>
	<path fill="#9B1C20" d="M53.99,44.073l-0.77,2.375h-1.115l-0.67,2.01h1.135l-0.77,2.353c-0.014,0.04-0.027,0.084-0.041,0.132
		c-0.014,0.047-0.027,0.099-0.041,0.151c0,0.055-0.004,0.106-0.01,0.154c-0.008,0.048-0.01,0.091-0.01,0.132
		c0,0.433,0.152,0.812,0.455,1.136C52.459,52.839,52.855,53,53.342,53h2.273l0.648-2.007H53.85l0.832-2.536h1.076l0.648-2.01h-1.074
		l0.566-1.746L53.99,44.073z"/>
	<path fill="#9B1C20" d="M59.389,45.148c0,0.013-0.148,0.224-0.445,0.629c-0.297,0.405-0.615,0.853-0.955,1.338
		c-0.365,0.488-0.838,1.137-1.42,1.949l1.623,1.177c0-0.015,0.092-0.146,0.275-0.397c0.182-0.25,0.4-0.55,0.66-0.902
		c0.066,0.136,0.121,0.288,0.162,0.456c0.039,0.17,0.061,0.35,0.061,0.539c0,0.365-0.086,0.632-0.254,0.8
		c-0.17,0.171-0.43,0.255-0.781,0.255h-1.402L56.264,53h2.051c0.92,0,1.656-0.283,2.211-0.851c0.555-0.568,0.832-1.307,0.832-2.212
		c0-0.5-0.086-0.992-0.254-1.471c-0.168-0.481-0.41-0.911-0.721-1.29c0.23-0.312,0.42-0.575,0.57-0.791
		c0.148-0.218,0.227-0.333,0.244-0.346L59.389,45.148z"/>
	<path fill="#9B1C20" d="M63.873,49.917l0.012-0.031l0.01-0.03c0.174-0.419,0.447-0.806,0.813-1.158
		c0.363-0.351,0.789-0.54,1.277-0.568c-0.121,0.217-0.348,0.478-0.68,0.782C64.973,49.216,64.494,49.55,63.873,49.917
		 M65.943,46.162c-0.096,0-0.184,0.004-0.264,0.01c-0.08,0.008-0.164,0.019-0.244,0.031c-0.176,0.026-0.354,0.071-0.537,0.132
		c-0.184,0.061-0.367,0.145-0.557,0.254c-0.447,0.217-0.877,0.537-1.289,0.963c-0.412,0.427-0.762,0.965-1.045,1.614
		c-0.096,0.229-0.188,0.484-0.275,0.761c-0.088,0.276-0.145,0.551-0.172,0.822c0,0.054-0.002,0.104-0.01,0.151
		s-0.012,0.09-0.012,0.131c0,0.176,0.021,0.353,0.061,0.529c0.041,0.175,0.104,0.337,0.184,0.486
		c0.176,0.325,0.424,0.565,0.74,0.721C62.842,52.923,63.184,53,63.549,53h4.424l0.67-2.009h-2.801
		c0.609-0.432,1.082-0.848,1.42-1.247s0.563-0.768,0.67-1.107c0.055-0.135,0.092-0.26,0.111-0.375
		c0.021-0.113,0.031-0.225,0.031-0.334c0-0.556-0.217-0.987-0.648-1.298C66.992,46.317,66.498,46.162,65.943,46.162"/>
	<path fill="#9B1C20" d="M69.596,45.533l-1.115,3.49l1.906,0.629l0.162-0.466c0-0.013,0.004-0.031,0.01-0.051
		c0.008-0.02,0.018-0.037,0.031-0.051c0.055-0.12,0.143-0.238,0.264-0.354c0.123-0.115,0.252-0.192,0.387-0.234
		c0.041-0.013,0.076-0.023,0.111-0.029c0.033-0.007,0.07-0.01,0.111-0.01h0.324c-0.256,0.351-0.48,0.732-0.67,1.144
		c-0.189,0.414-0.283,0.837-0.283,1.269c0,0.082,0.004,0.163,0.01,0.244c0.008,0.083,0.023,0.163,0.051,0.244
		c0.014,0.096,0.033,0.183,0.061,0.265c0.027,0.082,0.063,0.162,0.102,0.244c0.203,0.379,0.482,0.663,0.844,0.852
		C72.258,52.907,72.646,53,73.066,53h0.355h0.457h0.455h0.355l0.648-2.007h-2.271c-0.082,0-0.139-0.019-0.174-0.053
		c-0.031-0.031-0.057-0.076-0.07-0.13c0-0.122,0.061-0.281,0.184-0.478c0.121-0.196,0.27-0.409,0.445-0.639
		c0.055-0.054,0.109-0.115,0.164-0.183c0.053-0.067,0.107-0.128,0.16-0.183c0.176-0.202,0.346-0.385,0.508-0.546
		c0.164-0.163,0.285-0.272,0.365-0.324h0.771v-2.031h-3.998l0.104-0.264L69.596,45.533z"/>
	<path fill="#9B1C20" d="M82.178,46.102h-1.381c-0.068,0-0.139,0.003-0.213,0.01c-0.074,0.008-0.145,0.018-0.213,0.031
		c-0.352,0.08-0.68,0.24-0.984,0.476c-0.305,0.237-0.51,0.526-0.619,0.863c-0.027,0.081-0.047,0.162-0.061,0.244
		c-0.014,0.081-0.02,0.161-0.02,0.243c0,0.136,0.02,0.271,0.061,0.405c0.039,0.135,0.094,0.264,0.162,0.386
		c-0.178,0.284-0.373,0.555-0.588,0.812c-0.219,0.256-0.453,0.501-0.711,0.731c-0.027-0.135-0.047-0.275-0.061-0.417
		c-0.016-0.142-0.021-0.28-0.021-0.417c0-0.175,0.006-0.348,0.021-0.518c0.014-0.167,0.041-0.341,0.08-0.517
		c0.055-0.352,0.135-0.7,0.244-1.045c0.107-0.345,0.229-0.665,0.365-0.962h-2.15c-0.041,0.121-0.082,0.245-0.121,0.374
		c-0.043,0.129-0.082,0.26-0.123,0.395c-0.109,0.38-0.189,0.76-0.244,1.139c-0.053,0.379-0.08,0.749-0.08,1.115
		c0,0.596,0.074,1.117,0.223,1.563c0.148,0.446,0.352,0.879,0.609,1.297c0.068,0.109,0.141,0.221,0.223,0.336
		s0.162,0.232,0.242,0.354h0.549c0.543-0.364,1.047-0.75,1.512-1.156c0.467-0.405,0.904-0.879,1.311-1.42
		c0.119-0.163,0.234-0.324,0.344-0.487c0.109-0.164,0.211-0.325,0.305-0.488h1.471c0.039-0.099,0.074-0.193,0.111-0.283
		c0.146-0.334,0.309-0.637,0.488-0.913l0.264-0.813H81.75c0.068-0.229,0.139-0.457,0.213-0.679
		C82.037,46.538,82.109,46.319,82.178,46.102"/>
	<path fill="#9B1C20" d="M84.287,49.917l0.01-0.031l0.01-0.03c0.176-0.419,0.447-0.806,0.813-1.158
		c0.365-0.351,0.791-0.54,1.279-0.568c-0.123,0.217-0.35,0.478-0.682,0.782C85.387,49.216,84.908,49.55,84.287,49.917
		 M86.357,46.162c-0.094,0-0.184,0.004-0.264,0.01c-0.084,0.008-0.164,0.019-0.244,0.031c-0.176,0.026-0.355,0.071-0.537,0.132
		c-0.182,0.061-0.369,0.145-0.559,0.254c-0.447,0.217-0.875,0.537-1.289,0.963c-0.199,0.208-0.385,0.442-0.557,0.702
		c-0.18,0.275-0.342,0.578-0.488,0.913c-0.037,0.09-0.072,0.185-0.111,0.283c-0.055,0.15-0.109,0.31-0.162,0.478
		c-0.088,0.276-0.146,0.551-0.172,0.822c0,0.054-0.004,0.104-0.012,0.151s-0.01,0.09-0.01,0.131c0,0.176,0.021,0.353,0.061,0.529
		c0.041,0.175,0.104,0.337,0.184,0.486c0.176,0.325,0.422,0.565,0.74,0.721C83.256,52.923,83.598,53,83.963,53h4.422l0.67-2.009
		h-2.799c0.607-0.432,1.082-0.848,1.42-1.247s0.563-0.768,0.67-1.107c0.053-0.135,0.092-0.26,0.111-0.375
		c0.02-0.113,0.031-0.225,0.031-0.334c0-0.556-0.219-0.987-0.65-1.298C87.406,46.317,86.912,46.162,86.357,46.162"/>
	<path fill="#FFFFFF" d="M40.164,41.676c0.041,0.183,0.063,0.367,0.063,0.559c0,0.053-0.004,0.114-0.012,0.183
		c-0.006,0.067-0.01,0.128-0.01,0.181c-0.055,0.339-0.156,0.67-0.305,0.995s-0.311,0.616-0.486,0.873
		c-0.313,0.433-0.619,0.863-0.924,1.288c-0.305,0.427-0.611,0.857-0.922,1.289l-1.645-1.157c0.311-0.432,0.619-0.865,0.922-1.298
		c0.305-0.433,0.613-0.859,0.924-1.279c0.055-0.066,0.102-0.137,0.143-0.212c0.041-0.075,0.08-0.152,0.121-0.234
		c0.041-0.094,0.078-0.191,0.113-0.293c0.033-0.102,0.057-0.193,0.07-0.273c-0.135-0.015-0.309,0.003-0.518,0.05
		c-0.209,0.047-0.471,0.133-0.781,0.253c-0.176,0.068-0.363,0.14-0.559,0.214c-0.197,0.074-0.395,0.158-0.6,0.254
		c-0.148,0.067-0.293,0.139-0.436,0.213c-0.141,0.074-0.281,0.152-0.416,0.233c-0.08,0.055-0.176,0.119-0.283,0.193
		c-0.109,0.074-0.217,0.158-0.326,0.253c-0.188,0.148-0.361,0.318-0.516,0.507c-0.156,0.19-0.254,0.379-0.295,0.569
		c-0.014,0.041-0.02,0.074-0.02,0.102v0.081c0,0.081,0.016,0.162,0.051,0.243c0.033,0.082,0.084,0.162,0.15,0.245
		c0.436,0.473,0.869,0.95,1.311,1.429c0.439,0.481,0.875,0.957,1.309,1.431c0.135,0.135,0.234,0.291,0.295,0.466
		c0.061,0.176,0.104,0.358,0.131,0.549v0.092v0.091c0,0.202-0.021,0.398-0.061,0.587c-0.041,0.189-0.102,0.373-0.182,0.549
		c-0.219,0.513-0.553,0.931-1.006,1.248c-0.453,0.318-0.971,0.476-1.553,0.476h-5.945l0.648-2.008h2.648h2.648
		c0.203,0,0.383-0.082,0.539-0.244c0.154-0.162,0.238-0.344,0.252-0.547c-0.201-0.23-0.408-0.459-0.619-0.69
		c-0.209-0.231-0.422-0.46-0.639-0.691c-0.217-0.229-0.43-0.459-0.639-0.689c-0.211-0.23-0.424-0.459-0.639-0.69
		c-0.258-0.27-0.443-0.571-0.559-0.902s-0.172-0.667-0.172-1.004c0.025-0.88,0.375-1.634,1.045-2.264
		c0.67-0.629,1.402-1.139,2.201-1.531c0.27-0.135,0.535-0.257,0.791-0.366c0.258-0.108,0.508-0.208,0.752-0.304
		c0.244-0.093,0.514-0.178,0.811-0.253c0.299-0.074,0.596-0.124,0.893-0.152h0.133h0.133c0.35,0,0.678,0.064,0.982,0.192
		c0.305,0.128,0.559,0.354,0.762,0.681C40.049,41.321,40.125,41.494,40.164,41.676"/>
	<path fill="#FFFFFF" d="M44.75,49.722h-0.973c-0.178,0.786-0.594,1.469-1.248,2.05c-0.656,0.582-1.404,0.872-2.242,0.872h-0.113
		c-0.033,0-0.07-0.007-0.111-0.021c-0.039,0-0.076-0.002-0.111-0.009c-0.033-0.007-0.07-0.01-0.111-0.01
		c-0.744-0.109-1.344-0.444-1.797-1.005c-0.451-0.562-0.68-1.214-0.68-1.958c0-0.959,0.352-1.816,1.057-2.567
		c0.703-0.751,1.549-1.127,2.535-1.127c0.596,0,1.127,0.156,1.594,0.468c0.467,0.311,0.814,0.723,1.045,1.238h1.826L44.75,49.722z
		 M40.703,49.174c-0.25-0.271-0.396-0.595-0.438-0.974c-0.217,0.135-0.398,0.315-0.549,0.538c-0.148,0.223-0.242,0.457-0.283,0.7
		v0.049v0.052c-0.014,0.013-0.02,0.031-0.02,0.05v0.051c0.014,0.244,0.09,0.459,0.232,0.648c0.143,0.19,0.355,0.284,0.641,0.284
		c0.27,0,0.523-0.087,0.76-0.264s0.424-0.386,0.559-0.627C41.254,49.613,40.953,49.445,40.703,49.174"/>
	<path fill="#FFFFFF" d="M51.467,48.1h-1.176c0.35,0.527,0.615,1.105,0.789,1.734c0.178,0.629,0.258,1.281,0.244,1.958v0.244
		c0,0.081-0.006,0.161-0.02,0.244c-0.066,1.217-0.406,2.385-1.014,3.5c-0.609,1.116-1.434,1.952-2.475,2.507
		c-0.219,0.122-0.445,0.219-0.682,0.294c-0.236,0.072-0.477,0.124-0.721,0.151c-0.055,0.014-0.105,0.021-0.152,0.021h-0.152
		c-0.324,0-0.633-0.064-0.922-0.193c-0.291-0.128-0.553-0.341-0.781-0.639v0.039c-0.135-0.229-0.246-0.482-0.334-0.759
		c-0.09-0.279-0.133-0.593-0.133-0.943c0-0.257,0.025-0.535,0.08-0.834c0.055-0.296,0.129-0.615,0.225-0.954l2.068-6.37h-1.764
		l0.811-2.031h1.604l1.908-5.905H51l-1.906,5.905h3.023L51.467,48.1z M48.414,48.96c-0.063-0.074-0.125-0.138-0.193-0.192
		c-0.338,1.056-0.68,2.108-1.025,3.155c-0.344,1.049-0.686,2.1-1.023,3.155c-0.014,0.027-0.023,0.051-0.031,0.071
		c-0.008,0.021-0.01,0.044-0.01,0.071c-0.027,0.055-0.047,0.112-0.063,0.173c-0.012,0.061-0.025,0.119-0.039,0.172
		c-0.041,0.123-0.072,0.245-0.092,0.364c-0.02,0.122-0.029,0.237-0.029,0.346c0,0.135,0.025,0.243,0.08,0.324
		c0.055,0.083,0.15,0.122,0.285,0.122c0.066,0,0.15-0.017,0.252-0.051c0.102-0.033,0.221-0.084,0.355-0.152
		c0.689-0.378,1.25-0.973,1.676-1.784c0.426-0.813,0.672-1.659,0.74-2.539c0.014-0.067,0.02-0.138,0.02-0.213v-0.233
		c0-0.473-0.057-0.929-0.172-1.371c-0.115-0.438-0.301-0.833-0.559-1.186C48.533,49.111,48.475,49.035,48.414,48.96"/>
	<path fill="#FFFFFF" d="M56.115,48.1h-1.076l-0.832,2.536h2.414l-0.648,2.008h-2.273c-0.486,0-0.883-0.162-1.188-0.486
		c-0.303-0.325-0.455-0.704-0.455-1.136c0-0.042,0.002-0.084,0.01-0.134c0.006-0.046,0.01-0.097,0.01-0.152
		c0.014-0.052,0.025-0.104,0.041-0.151c0.014-0.048,0.027-0.09,0.039-0.132l0.771-2.353h-1.137l0.67-2.01h1.117l0.771-2.375
		l1.906,0.629l-0.566,1.745h1.074L56.115,48.1z"/>
	<path fill="#FFFFFF" d="M60.883,51.792c-0.555,0.568-1.291,0.852-2.213,0.852h-2.049l0.65-2.008h1.398
		c0.354,0,0.613-0.084,0.783-0.255c0.168-0.167,0.254-0.434,0.254-0.799c0-0.19-0.021-0.37-0.063-0.54
		c-0.039-0.168-0.094-0.319-0.16-0.456c-0.258,0.352-0.479,0.653-0.66,0.902c-0.184,0.252-0.275,0.384-0.275,0.397l-1.623-1.178
		c0.582-0.813,1.055-1.461,1.42-1.949c0.338-0.486,0.658-0.932,0.955-1.339c0.297-0.405,0.445-0.614,0.445-0.628l1.807,0.892
		c-0.014,0.016-0.096,0.129-0.242,0.346c-0.152,0.216-0.34,0.479-0.57,0.791c0.311,0.379,0.551,0.808,0.723,1.289
		c0.166,0.479,0.252,0.97,0.252,1.472C61.715,50.486,61.438,51.224,60.883,51.792"/>
	<path fill="#FFFFFF" d="M68.328,52.644h-4.422c-0.365,0-0.707-0.078-1.025-0.232c-0.316-0.157-0.564-0.397-0.74-0.72
		c-0.08-0.15-0.141-0.313-0.182-0.487c-0.041-0.176-0.063-0.353-0.063-0.529c0-0.042,0.004-0.084,0.012-0.132
		c0.004-0.047,0.01-0.097,0.01-0.151c0.027-0.27,0.084-0.545,0.172-0.822c0.088-0.277,0.18-0.532,0.275-0.761
		c0.283-0.649,0.631-1.188,1.043-1.615c0.414-0.426,0.842-0.746,1.289-0.963c0.189-0.108,0.377-0.192,0.559-0.253
		c0.182-0.061,0.361-0.105,0.537-0.132c0.082-0.013,0.164-0.023,0.244-0.031c0.08-0.006,0.17-0.01,0.264-0.01
		c0.555,0,1.049,0.156,1.48,0.467c0.434,0.312,0.65,0.744,0.65,1.298c0,0.109-0.01,0.22-0.031,0.334
		c-0.02,0.115-0.057,0.24-0.111,0.375c-0.107,0.338-0.332,0.708-0.67,1.106s-0.811,0.815-1.42,1.247H69L68.328,52.644z
		 M65.063,48.341c-0.365,0.353-0.637,0.738-0.813,1.158l-0.01,0.03l-0.01,0.031c0.621-0.366,1.1-0.702,1.432-1.005
		c0.33-0.304,0.559-0.565,0.68-0.782C65.855,47.801,65.428,47.99,65.063,48.341"/>
	<path fill="#FFFFFF" d="M75.006,48.1c-0.08,0.053-0.201,0.161-0.365,0.324c-0.162,0.162-0.332,0.344-0.506,0.546
		c-0.057,0.054-0.109,0.116-0.162,0.183c-0.055,0.067-0.109,0.128-0.164,0.183c-0.176,0.23-0.324,0.443-0.445,0.64
		c-0.123,0.197-0.184,0.355-0.184,0.477c0.014,0.055,0.039,0.098,0.07,0.132c0.033,0.035,0.092,0.051,0.174,0.051h2.271
		l-0.648,2.008h-0.355h-0.457h-0.455h-0.355c-0.42,0-0.809-0.094-1.168-0.284c-0.359-0.189-0.639-0.473-0.842-0.852
		c-0.039-0.082-0.074-0.163-0.102-0.243c-0.027-0.082-0.047-0.17-0.061-0.266c-0.027-0.081-0.043-0.162-0.051-0.244
		c-0.006-0.081-0.012-0.162-0.012-0.242c0-0.433,0.096-0.856,0.285-1.268c0.189-0.414,0.414-0.795,0.67-1.146h-0.322
		c-0.043,0-0.08,0.002-0.113,0.009c-0.033,0.007-0.07,0.017-0.111,0.03c-0.135,0.042-0.264,0.119-0.387,0.234
		c-0.121,0.116-0.209,0.234-0.264,0.354c-0.014,0.016-0.023,0.031-0.031,0.051c-0.006,0.021-0.01,0.039-0.01,0.052l-0.162,0.467
		l-1.906-0.63l1.115-3.49l1.928,0.629l-0.102,0.265h3.998V48.1H75.006z"/>
	<path fill="#FFFFFF" d="M82.879,49.092h-1.684C81.1,49.255,81,49.418,80.891,49.581c-0.109,0.161-0.223,0.324-0.346,0.487
		c-0.406,0.54-0.842,1.015-1.307,1.419c-0.469,0.407-0.973,0.792-1.514,1.157h-0.549c-0.078-0.12-0.16-0.239-0.242-0.354
		s-0.154-0.227-0.223-0.334c-0.258-0.42-0.461-0.853-0.609-1.3c-0.148-0.446-0.225-0.966-0.225-1.563
		c0-0.366,0.029-0.736,0.082-1.115c0.055-0.378,0.135-0.758,0.244-1.136c0.039-0.135,0.08-0.269,0.121-0.397
		c0.041-0.129,0.082-0.253,0.123-0.375h2.15c-0.137,0.298-0.258,0.619-0.365,0.965c-0.109,0.343-0.189,0.693-0.244,1.043
		c-0.041,0.177-0.066,0.351-0.08,0.517c-0.016,0.17-0.021,0.343-0.021,0.517c0,0.137,0.006,0.276,0.021,0.417
		c0.014,0.142,0.033,0.282,0.061,0.417c0.258-0.23,0.492-0.475,0.711-0.731c0.215-0.257,0.41-0.527,0.588-0.812
		c-0.068-0.121-0.123-0.25-0.162-0.386c-0.041-0.135-0.061-0.27-0.061-0.405c0-0.081,0.006-0.163,0.02-0.243
		c0.014-0.083,0.035-0.164,0.061-0.245c0.109-0.337,0.314-0.624,0.619-0.863c0.305-0.235,0.633-0.396,0.982-0.476
		c0.07-0.013,0.141-0.025,0.215-0.03c0.074-0.008,0.145-0.011,0.213-0.011h1.379c-0.066,0.216-0.137,0.437-0.211,0.661
		c-0.076,0.223-0.148,0.449-0.215,0.678h1.422L82.879,49.092z"/>
	<path fill="#FFFFFF" d="M88.744,52.644H84.32c-0.365,0-0.707-0.078-1.025-0.232c-0.318-0.157-0.564-0.397-0.74-0.72
		c-0.082-0.15-0.143-0.313-0.184-0.487c-0.039-0.176-0.061-0.353-0.061-0.529c0-0.042,0.004-0.084,0.012-0.132
		c0.004-0.047,0.01-0.097,0.01-0.151c0.025-0.27,0.084-0.545,0.17-0.822c0.09-0.277,0.182-0.532,0.277-0.761
		c0.281-0.649,0.631-1.188,1.041-1.615c0.414-0.426,0.844-0.746,1.291-0.963c0.189-0.108,0.375-0.192,0.557-0.253
		c0.184-0.061,0.363-0.105,0.539-0.132c0.08-0.013,0.162-0.023,0.244-0.031c0.08-0.006,0.17-0.01,0.264-0.01
		c0.555,0,1.047,0.156,1.48,0.467c0.432,0.312,0.65,0.744,0.65,1.298c0,0.109-0.01,0.22-0.029,0.334
		c-0.021,0.115-0.061,0.24-0.113,0.375c-0.107,0.338-0.332,0.708-0.67,1.106c-0.34,0.398-0.813,0.815-1.42,1.247h2.801
		L88.744,52.644z M85.477,48.341c-0.365,0.353-0.637,0.738-0.813,1.158l-0.01,0.03l-0.01,0.031c0.621-0.366,1.1-0.702,1.43-1.005
		c0.332-0.304,0.559-0.565,0.682-0.782C86.268,47.801,85.842,47.99,85.477,48.341"/>
	<path fill="#FFFFFF" d="M54.045,54.289h-2.201v-0.224h1.857C53.865,54.064,53.98,54.14,54.045,54.289 M54.074,54.586h-2.23v-0.223
		h2.221c0.006,0.024,0.01,0.049,0.01,0.074V54.586z M52.4,54.883h-0.557V54.66H52.4V54.883z M52.4,55.181h-0.557v-0.224H52.4V55.181
		z M52.4,55.478h-0.557v-0.223H52.4V55.478z M52.4,55.776h-0.557v-0.224H52.4V55.776z M52.4,56.072h-0.557V55.85H52.4V56.072z
		 M54.074,56.296c0,0.024-0.004,0.049-0.01,0.074h-2.221v-0.224h2.23V56.296z M54.045,56.444c-0.064,0.148-0.18,0.223-0.344,0.223
		h-1.857v-0.223H54.045z M54.074,54.883h-0.557V54.66h0.557V54.883z M54.074,55.181h-0.557v-0.224h0.557V55.181z M54.074,55.478
		h-0.557v-0.223h0.557V55.478z M54.074,55.776h-0.557v-0.224h0.557V55.776z M54.074,56.072h-0.557V55.85h0.557V56.072z"/>
	<path fill="#FFFFFF" d="M54.855,54.289h-0.559v-0.224h0.559V54.289z M54.855,54.586h-0.559v-0.223h0.559V54.586z M54.855,54.883
		h-0.559V54.66h0.559V54.883z M54.855,55.181h-0.559v-0.224h0.559V55.181z M54.855,55.478h-0.559v-0.223h0.559V55.478z
		 M54.855,55.776h-0.559v-0.224h0.559V55.776z M54.855,56.072h-0.559V55.85h0.559V56.072z M54.855,56.37h-0.559v-0.224h0.559V56.37z
		 M54.855,56.667h-0.559v-0.223h0.559V56.667z"/>
	<path fill="#FFFFFF" d="M57.307,54.586h-2.229v-0.149c0-0.025,0.002-0.05,0.008-0.074h2.221V54.586z M55.635,54.883h-0.557V54.66
		h0.557V54.883z M55.635,55.181h-0.557v-0.224h0.557V55.181z M55.635,55.478h-0.557v-0.223h0.557V55.478z M55.635,55.776h-0.557
		v-0.224h0.557V55.776z M55.635,56.072h-0.557V55.85h0.557V56.072z M57.307,56.37h-2.221c-0.006-0.025-0.008-0.049-0.008-0.074
		v-0.15h2.229V56.37z M57.307,54.289h-2.201c0.064-0.148,0.18-0.224,0.344-0.224h1.857V54.289z M57.307,56.667h-1.857
		c-0.164,0-0.279-0.075-0.344-0.223h2.201V56.667z M57.307,55.181h-1.301v-0.224h1.301V55.181z M57.307,55.478h-1.301v-0.223h1.301
		V55.478z M57.307,55.776H56.75v-0.224h0.557V55.776z M57.307,56.072H56.75V55.85h0.557V56.072z"/>
	<path fill="#FFFFFF" d="M58.088,54.289h-0.559v-0.224h0.559V54.289z M58.088,54.586h-0.559v-0.223h0.559V54.586z M58.088,54.883
		h-0.559V54.66h0.559V54.883z M58.088,55.181h-0.559v-0.224h0.559V55.181z M58.088,55.478h-0.559v-0.223h0.559V55.478z
		 M58.088,55.776h-0.559v-0.224h0.559V55.776z M58.088,56.072h-0.559V55.85h0.559V56.072z M58.088,56.37h-0.559v-0.224h0.559V56.37z
		 M58.088,56.667h-0.559v-0.223h0.559V56.667z"/>
	<path fill="#FFFFFF" d="M60.541,54.289h-2.23v-0.224h2.23V54.289z M60.541,54.586h-2.23v-0.223h2.23V54.586z M59.74,54.883h-0.557
		V54.66h0.557V54.883z M59.74,55.181h-0.557v-0.224h0.557V55.181z M59.74,55.478h-0.557v-0.223h0.557V55.478z M59.74,55.776h-0.557
		v-0.224h0.557V55.776z M59.74,56.072h-0.557V55.85h0.557V56.072z M59.74,56.37h-0.557v-0.224h0.557V56.37z M59.74,56.667h-0.557
		v-0.223h0.557V56.667z"/>
	<path fill="#FFFFFF" d="M60.805,56.444l-0.09,0.223h-0.631l0.088-0.223H60.805z M60.924,56.146l-0.09,0.224h-0.633l0.09-0.224
		H60.924z M62.633,56.072h-2.311l0.088-0.223h2.133L62.633,56.072z M62.514,55.776h-2.074l0.09-0.224h1.895L62.514,55.776z
		 M61.279,55.255l-0.088,0.223h-0.633l0.09-0.223H61.279z M61.398,54.957l-0.088,0.224h-0.633l0.09-0.224H61.398z M62.156,54.883
		h-0.631l-0.049-0.122l-0.049,0.122h-0.631l0.088-0.223h1.182L62.156,54.883z M62.039,54.586h-1.125l0.092-0.223h0.941
		L62.039,54.586z M61.918,54.289h-0.883l0.088-0.222h0.707L61.918,54.289z M62.275,55.181h-0.633l-0.088-0.224h0.633L62.275,55.181z
		 M62.396,55.478h-0.633l-0.09-0.223h0.631L62.396,55.478z M62.752,56.37h-0.633l-0.09-0.224h0.633L62.752,56.37z M62.871,56.667
		H62.24l-0.092-0.223h0.633L62.871,56.667z"/>
	<path fill="#FFFFFF" d="M63.539,54.289h-0.557v-0.222h0.557V54.289z M63.539,54.586h-0.557v-0.223h0.557V54.586z M63.539,54.883
		h-0.557V54.66h0.557V54.883z M63.539,55.181h-0.557v-0.224h0.557V55.181z M63.539,55.478h-0.557v-0.223h0.557V55.478z
		 M63.539,55.776h-0.557v-0.224h0.557V55.776z M63.539,56.072h-0.557V55.85h0.557V56.072z M65.025,56.37h-2.037
		c-0.004-0.025-0.006-0.049-0.006-0.074v-0.15h2.043V56.37z M65.025,56.667h-1.672c-0.164,0-0.277-0.075-0.342-0.223h2.014V56.667z"
		/>
	<path fill="#FFFFFF" d="M68.377,54.289h-2.199v-0.224h1.859C68.199,54.064,68.313,54.14,68.377,54.289 M68.406,54.586h-2.229
		v-0.223H68.4c0.006,0.024,0.006,0.049,0.006,0.074V54.586z M66.736,54.883h-0.559V54.66h0.559V54.883z M66.736,55.181h-0.559
		v-0.224h0.559V55.181z M66.736,55.478h-0.559v-0.223h0.559V55.478z M66.736,55.776h-0.559v-0.224h0.559V55.776z M66.736,56.072
		h-0.559V55.85h0.559V56.072z M68.406,56.296c0,0.024,0,0.049-0.006,0.074h-2.223v-0.224h2.229V56.296z M68.377,56.444
		c-0.064,0.148-0.178,0.223-0.34,0.223h-1.859v-0.223H68.377z M68.406,54.883H67.85V54.66h0.557V54.883z M68.406,55.181H67.85
		v-0.224h0.557V55.181z M68.406,55.478H67.85v-0.223h0.557V55.478z M68.406,55.776H67.85v-0.224h0.557V55.776z M68.406,56.072H67.85
		V55.85h0.557V56.072z"/>
	<path fill="#FFFFFF" d="M70.676,54.586h-2.045v-0.149c0-0.025,0.002-0.05,0.008-0.074h2.037V54.586z M69.189,54.883h-0.559V54.66
		h0.559V54.883z M70.676,55.181h-2.045v-0.224h2.045V55.181z M70.676,55.478h-2.045v-0.223h2.045V55.478z M69.189,55.776h-0.559
		v-0.224h0.559V55.776z M69.189,56.072h-0.559V55.85h0.559V56.072z M70.676,56.37h-2.037c-0.006-0.025-0.008-0.049-0.008-0.074
		v-0.15h2.045V56.37z M70.676,54.289H68.66c0.064-0.148,0.178-0.222,0.342-0.222h1.674V54.289z M70.676,56.667h-1.674
		c-0.164,0-0.277-0.075-0.342-0.223h2.016V56.667z"/>
	<path fill="#FFFFFF" d="M71.506,54.289h-0.631l-0.09-0.222h0.633L71.506,54.289z M71.627,54.586h-0.633l-0.088-0.223h0.629
		L71.627,54.586z M71.744,54.883h-0.631l-0.09-0.223h0.631L71.744,54.883z M71.863,55.181h-0.631l-0.09-0.224h0.631L71.863,55.181z
		 M71.982,55.478h-0.631l-0.09-0.223h0.633L71.982,55.478z M72.102,55.776h-0.631l-0.09-0.224h0.631L72.102,55.776z M72.861,55.85
		l-0.092,0.223h-1.18L71.5,55.85h0.631l0.049,0.122l0.049-0.122H72.861z M72.74,56.146l-0.09,0.224h-0.941l-0.09-0.224H72.74z
		 M72.621,56.444l-0.088,0.223h-0.707l-0.09-0.223H72.621z M72.979,55.552l-0.09,0.224h-0.631l0.09-0.224H72.979z M73.098,55.255
		l-0.09,0.223h-0.631l0.088-0.223H73.098z M73.217,54.957l-0.09,0.224h-0.631l0.088-0.224H73.217z M73.334,54.66l-0.088,0.223
		h-0.631l0.088-0.223H73.334z M73.453,54.363l-0.088,0.223h-0.631l0.088-0.223H73.453z M73.572,54.066l-0.088,0.222h-0.633
		l0.09-0.222H73.572z"/>
	<path fill="#FFFFFF" d="M75.729,54.586h-2.045v-0.149c0-0.025,0.004-0.05,0.008-0.074h2.037V54.586z M74.242,54.883h-0.557V54.66
		h0.557V54.883z M75.729,55.181h-2.045v-0.224h2.045V55.181z M75.729,55.478h-2.045v-0.223h2.045V55.478z M74.242,55.776h-0.557
		v-0.224h0.557V55.776z M74.242,56.072h-0.557V55.85h0.557V56.072z M75.729,56.37h-2.037c-0.004-0.025-0.008-0.049-0.008-0.074
		v-0.15h2.045V56.37z M75.729,54.289h-2.014c0.064-0.148,0.178-0.222,0.342-0.222h1.672V54.289z M75.729,56.667h-1.672
		c-0.164,0-0.277-0.075-0.342-0.223h2.014V56.667z"/>
	<path fill="#FFFFFF" d="M76.508,54.289h-0.557v-0.222h0.557V54.289z M76.508,54.586h-0.557v-0.223h0.557V54.586z M76.508,54.883
		h-0.557V54.66h0.557V54.883z M76.508,55.181h-0.557v-0.224h0.557V55.181z M76.508,55.478h-0.557v-0.223h0.557V55.478z
		 M76.508,55.776h-0.557v-0.224h0.557V55.776z M76.508,56.072h-0.557V55.85h0.557V56.072z M77.996,56.37h-2.037
		c-0.004-0.025-0.008-0.049-0.008-0.074v-0.15h2.045V56.37z M77.996,56.667h-1.672c-0.166,0-0.279-0.075-0.344-0.223h2.016V56.667z"
		/>
	<path fill="#FFFFFF" d="M80.447,54.586h-2.23v-0.149c0-0.025,0.004-0.05,0.01-0.074h2.215c0.006,0.024,0.006,0.049,0.006,0.074
		V54.586z M78.775,54.883h-0.559V54.66h0.559V54.883z M78.775,55.181h-0.559v-0.224h0.559V55.181z M78.775,55.478h-0.559v-0.223
		h0.559V55.478z M78.775,55.776h-0.559v-0.224h0.559V55.776z M78.775,56.072h-0.559V55.85h0.559V56.072z M80.447,56.296
		c0,0.024,0,0.049-0.006,0.074h-2.215c-0.006-0.025-0.01-0.049-0.01-0.074v-0.15h2.23V56.296z M80.418,54.289h-2.17
		c0.066-0.148,0.18-0.224,0.342-0.224h1.486C80.24,54.064,80.354,54.14,80.418,54.289 M80.418,56.444
		c-0.064,0.148-0.178,0.223-0.342,0.223H78.59c-0.162,0-0.275-0.075-0.342-0.223H80.418z M80.447,54.883h-0.557V54.66h0.557V54.883z
		 M80.447,55.181h-0.557v-0.224h0.557V55.181z M80.447,55.478h-0.557v-0.223h0.557V55.478z M80.447,55.776h-0.557v-0.224h0.557
		V55.776z M80.447,56.072h-0.557V55.85h0.557V56.072z"/>
	<path fill="#FFFFFF" d="M82.871,54.289h-2.199v-0.224h1.857C82.691,54.064,82.809,54.14,82.871,54.289 M82.902,54.586h-2.23v-0.223
		h2.221c0.006,0.024,0.01,0.049,0.01,0.074V54.586z M81.229,54.883h-0.557V54.66h0.557V54.883z M82.902,55.105
		c0,0.026-0.004,0.049-0.01,0.076h-2.221v-0.224h2.23V55.105z M82.871,55.255c-0.063,0.149-0.18,0.223-0.342,0.223h-1.857v-0.223
		H82.871z M81.229,55.776h-0.557v-0.224h0.557V55.776z M81.229,56.072h-0.557V55.85h0.557V56.072z M81.229,56.37h-0.557v-0.224
		h0.557V56.37z M81.229,56.667h-0.557v-0.223h0.557V56.667z M82.902,54.883h-0.559V54.66h0.559V54.883z"/>
	<path fill="#FFFFFF" d="M83.789,54.289h-0.666v-0.224h0.559L83.789,54.289z M83.934,54.586h-0.811v-0.223h0.703L83.934,54.586z
		 M84.08,54.883h-0.957V54.66h0.848L84.08,54.883z M84.225,55.181h-1.102v-0.224h0.992L84.225,55.181z M84.369,55.478h-0.633
		l-0.055-0.11v0.11h-0.559v-0.223h1.133L84.369,55.478z M83.682,55.776h-0.559v-0.224h0.559V55.776z M83.682,56.072h-0.559V55.85
		h0.559V56.072z M83.682,56.37h-0.559v-0.224h0.559V56.37z M83.682,56.667h-0.559v-0.223h0.559V56.667z M84.51,55.776h-0.631
		l-0.107-0.224H84.4L84.51,55.776z M85.156,55.85l-0.107,0.223h-1.027l-0.105-0.223H85.156z M85.012,56.146l-0.107,0.224h-0.736
		l-0.107-0.224H85.012z M84.865,56.444l-0.105,0.223h-0.447l-0.109-0.223H84.865z M85.301,55.552l-0.107,0.224h-0.633l0.109-0.224
		H85.301z M85.947,55.478h-0.557v-0.11l-0.055,0.11h-0.633l0.111-0.223h1.133V55.478z M85.947,55.181h-1.1l0.107-0.224h0.992V55.181
		z M85.947,54.883h-0.953l0.107-0.223h0.846V54.883z M85.947,54.586h-0.809l0.105-0.223h0.703V54.586z M85.947,54.289h-0.664
		l0.107-0.224h0.557V54.289z M85.947,55.776h-0.559v-0.224h0.559V55.776z M85.947,56.072h-0.559V55.85h0.559V56.072z M85.947,56.37
		h-0.559v-0.224h0.559V56.37z M85.947,56.667h-0.559v-0.223h0.559V56.667z"/>
	<path fill="#FFFFFF" d="M88.215,54.586H86.17v-0.149c0-0.025,0.004-0.05,0.008-0.074h2.037V54.586z M86.729,54.883H86.17V54.66
		h0.559V54.883z M88.215,55.181H86.17v-0.224h2.045V55.181z M88.215,55.478H86.17v-0.223h2.045V55.478z M86.729,55.776H86.17v-0.224
		h0.559V55.776z M86.729,56.072H86.17V55.85h0.559V56.072z M88.215,56.37h-2.037c-0.004-0.025-0.008-0.049-0.008-0.074v-0.15h2.045
		V56.37z M88.215,54.289h-2.016c0.066-0.148,0.18-0.222,0.344-0.222h1.672V54.289z M88.215,56.667h-1.672
		c-0.164,0-0.277-0.075-0.344-0.223h2.016V56.667z"/>
	<path fill="#FFFFFF" d="M89.154,54.289h-0.717v-0.224h0.557L89.154,54.289z M89.367,54.586h-0.93v-0.223h0.77L89.367,54.586z
		 M89.578,54.883h-1.141V54.66h0.98L89.578,54.883z M89.791,55.181h-0.742l-0.055-0.076v0.076h-0.557v-0.224h1.193L89.791,55.181z
		 M88.994,55.478h-0.557v-0.223h0.557V55.478z M88.994,55.776h-0.557v-0.224h0.557V55.776z M88.994,56.072h-0.557V55.85h0.557
		V56.072z M88.994,56.37h-0.557v-0.224h0.557V56.37z M88.994,56.667h-0.557v-0.223h0.557V56.667z M90.002,55.478h-0.744
		l-0.154-0.223h0.744L90.002,55.478z M90.666,55.776h-1.189l-0.162-0.224h0.744l0.051,0.076v-0.076h0.557V55.776z M90.666,56.072
		h-0.979l-0.16-0.223h1.139V56.072z M90.666,56.37H89.9l-0.162-0.224h0.928V56.37z M90.666,56.667h-0.557l-0.158-0.223h0.715V56.667
		z M90.666,54.289h-0.557v-0.222h0.557V54.289z M90.666,54.586h-0.557v-0.223h0.557V54.586z M90.666,54.883h-0.557V54.66h0.557
		V54.883z M90.666,55.181h-0.557v-0.224h0.557V55.181z M90.666,55.478h-0.557v-0.223h0.557V55.478z"/>
	<path fill="#FFFFFF" d="M93.121,54.289h-2.23v-0.224h2.23V54.289z M93.121,54.586h-2.23v-0.223h2.23V54.586z M92.322,54.883h-0.557
		V54.66h0.557V54.883z M92.322,55.181h-0.557v-0.224h0.557V55.181z M92.322,55.478h-0.557v-0.223h0.557V55.478z M92.322,55.776
		h-0.557v-0.224h0.557V55.776z M92.322,56.072h-0.557V55.85h0.557V56.072z M92.322,56.37h-0.557v-0.224h0.557V56.37z M92.322,56.667
		h-0.557v-0.223h0.557V56.667z"/>
</g>
</svg>
